<svg width="684" height="634" viewBox="0 0 684 634" fill="none" xmlns="http://www.w3.org/2000/svg">
<path d="M71.5942 170.725C71.5942 146.392 91.3197 126.667 115.652 126.667H571.652C595.985 126.667 615.71 146.392 615.71 170.725V589.275C615.71 613.608 595.985 633.333 571.652 633.333H115.652C91.3197 633.333 71.5942 613.608 71.5942 589.275V170.725Z" fill="#16181D"/>
<path d="M175.131 273.159C175.131 265.251 181.541 258.841 189.449 258.841H262.145C270.053 258.841 276.464 265.251 276.464 273.159V345.855C276.464 353.763 270.053 360.174 262.145 360.174H189.449C181.541 360.174 175.131 353.763 175.131 345.855V273.159Z" fill="white"/>
<path d="M414.145 273.159C414.145 265.251 420.555 258.841 428.463 258.841H501.159C509.067 258.841 515.478 265.251 515.478 273.159V345.855C515.478 353.763 509.067 360.174 501.159 360.174H428.463C420.555 360.174 414.145 353.763 414.145 345.855V273.159Z" fill="white"/>
<path d="M319.421 95.826C319.421 83.0514 329.777 72.6956 342.551 72.6956V72.6956C355.326 72.6956 365.682 83.0514 365.682 95.826V192.754C365.682 205.528 355.326 215.884 342.551 215.884V215.884C329.777 215.884 319.421 205.528 319.421 192.754V95.826Z" fill="#16181D"/>
<path d="M288.58 48.4638C288.58 21.698 310.278 0 337.044 0H348.059C374.824 0 396.522 21.698 396.522 48.4638V53.971C396.522 80.7368 374.824 102.435 348.059 102.435H337.044C310.278 102.435 288.58 80.7368 288.58 53.971V48.4638Z" fill="#16181D"/>
<path d="M28.6372 345.855C28.6372 339.164 34.0617 333.739 40.7532 333.739H120.058C126.749 333.739 132.173 339.164 132.173 345.855V464.812C132.173 471.503 126.749 476.928 120.058 476.928H40.7531C34.0617 476.928 28.6372 471.503 28.6372 464.812V345.855Z" fill="#16181D"/>
<path d="M0 373.391C0 366.7 5.42449 361.275 12.1159 361.275H81.5073C88.1987 361.275 93.6232 366.7 93.6232 373.391V437.275C93.6232 443.967 88.1987 449.391 81.5073 449.391H12.1159C5.42449 449.391 0 443.967 0 437.275V373.391Z" fill="#16181D"/>
<path d="M655.362 345.855C655.362 339.164 649.938 333.739 643.246 333.739H563.942C557.251 333.739 551.826 339.164 551.826 345.855V464.812C551.826 471.503 557.251 476.928 563.942 476.928H643.246C649.938 476.928 655.362 471.503 655.362 464.812V345.855Z" fill="#16181D"/>
<path d="M684 373.391C684 366.7 678.576 361.275 671.885 361.275H602.493C595.802 361.275 590.377 366.7 590.377 373.391V437.275C590.377 443.967 595.802 449.391 602.493 449.391H671.885C678.576 449.391 684 443.967 684 437.275V373.391Z" fill="#16181D"/>
<path d="M198.543 487.436C171.093 472.244 190.414 425.197 201.69 406.289C191.725 414.693 166.444 442.687 145.044 487.436C115.463 574.413 175.66 580.755 238.668 556.765L597.484 406.289C188.805 507.862 212.704 495.273 198.543 487.436Z" fill="white"/>
</svg>
